<svg xmlns="http://www.w3.org/2000/svg" xmlns:xlink="http://www.w3.org/1999/xlink" viewBox="0 0 40 40"><defs><style>.cls-1{fill:none;}.cls-2{clip-path:url(#clip-path);}.cls-3{fill:#c7483d;}.cls-4{fill:#fff;}</style><clipPath id="clip-path"><circle class="cls-1" cx="20" cy="20" r="20"/></clipPath></defs><g id="Capa_2" data-name="Capa 2"><g id="Capa_1-2" data-name="Capa 1"><g class="cls-2"><rect class="cls-3" x="-1.33" y="-1.41" width="42.66" height="42.82"/><rect class="cls-4" x="9.34" y="-1.41" width="21.33" height="42.82"/><path class="cls-3" d="M20,11.34l-1.46,2.71c-.16.29-.46.27-.75.1l-1.06-.54.79,4.17c.16.76-.37.76-.63.43l-1.84-2.06-.29,1a.36.36,0,0,1-.42.25L12,17l.61,2.22c.13.5.23.7-.13.83l-.83.39,4,3.25a.53.53,0,0,1,.18.55l-.35,1.15c1.38-.16,2.62-.4,4-.55a.4.4,0,0,1,.33.33l-.18,4.21h.67l-.11-4.2c0-.14.18-.35.31-.34,1.37.15,2.61.39,4,.55l-.35-1.15a.53.53,0,0,1,.18-.55l4-3.25L27.5,20c-.36-.13-.26-.33-.13-.83L28,17l-2.32.49a.36.36,0,0,1-.42-.25l-.29-1-1.84,2.06c-.26.33-.79.33-.63-.43l.79-4.17-1.06.54c-.29.17-.59.19-.75-.1"/></g></g></g></svg>