<?xml version="1.0" encoding="UTF-8"?>
<!DOCTYPE svg PUBLIC "-//W3C//DTD SVG 1.1//EN" "http://www.w3.org/Graphics/SVG/1.1/DTD/svg11.dtd">
<svg xmlns="http://www.w3.org/2000/svg" version="1.1" width="40px" height="40px" style="shape-rendering:geometricPrecision; text-rendering:geometricPrecision; image-rendering:optimizeQuality; fill-rule:evenodd; clip-rule:evenodd" xmlns:xlink="http://www.w3.org/1999/xlink">
<g><path style="opacity:0.928" fill="#f60c05" d="M 11.5,-0.5 C 16.8333,-0.5 22.1667,-0.5 27.5,-0.5C 32.5,2.5 36.5,6.5 39.5,11.5C 39.5,14.1667 39.5,16.8333 39.5,19.5C 26.1667,19.5 12.8333,19.5 -0.5,19.5C -0.5,16.8333 -0.5,14.1667 -0.5,11.5C 2.5,6.5 6.5,2.5 11.5,-0.5 Z"/></g>
<g><path style="opacity:1" fill="#ffe2e1" d="M 9.5,5.5 C 10.8734,5.34332 12.2068,5.50999 13.5,6C 9.55368,9.45985 9.55368,12.9598 13.5,16.5C 10.5126,17.5938 8.34595,16.5938 7,13.5C 6.01816,10.2253 6.85149,7.55863 9.5,5.5 Z"/></g>
<g><path style="opacity:1" fill="#fb8a88" d="M 16.5,6.5 C 18.337,6.63945 18.6704,7.30612 17.5,8.5C 16.7025,8.04311 16.3691,7.37644 16.5,6.5 Z"/></g>
<g><path style="opacity:1" fill="#fbb2b2" d="M 18.5,12.5 C 20.337,12.6395 20.6704,13.3061 19.5,14.5C 18.7025,14.0431 18.3691,13.3764 18.5,12.5 Z"/></g>
<g><path style="opacity:1" fill="#fbaaaa" d="M 14.5,12.5 C 16.337,12.6395 16.6704,13.3061 15.5,14.5C 14.7025,14.0431 14.3691,13.3764 14.5,12.5 Z"/></g>
<g><path style="opacity:1" fill="#fff8f7" d="M -0.5,19.5 C 12.8333,19.5 26.1667,19.5 39.5,19.5C 39.5,20.1667 39.5,20.8333 39.5,21.5C 38.2655,24.3298 37.2655,27.3298 36.5,30.5C 34.4938,34.5062 31.4938,37.5062 27.5,39.5C 22.1667,39.5 16.8333,39.5 11.5,39.5C 7.19429,37.1943 3.86096,33.861 1.5,29.5C 1.43487,26.5718 0.768202,23.9052 -0.5,21.5C -0.5,20.8333 -0.5,20.1667 -0.5,19.5 Z"/></g>
<g><path style="opacity:0.588" fill="#ffa79f" d="M -0.5,21.5 C 0.768202,23.9052 1.43487,26.5718 1.5,29.5C 0.833333,28.8333 0.166667,28.1667 -0.5,27.5C -0.5,25.5 -0.5,23.5 -0.5,21.5 Z"/></g>
<g><path style="opacity:0.58" fill="#ffb2ac" d="M 39.5,21.5 C 39.5,23.5 39.5,25.5 39.5,27.5C 38.7281,28.6935 37.7281,29.6935 36.5,30.5C 37.2655,27.3298 38.2655,24.3298 39.5,21.5 Z"/></g>
</svg>
